<?xml version="1.0" standalone="no"?>
<!DOCTYPE svg PUBLIC "-//W3C//DTD SVG 20010904//EN"
 "http://www.w3.org/TR/2001/REC-SVG-20010904/DTD/svg10.dtd">
<svg version="1.0" xmlns="http://www.w3.org/2000/svg"
 width="640.000000pt" height="640.000000pt" viewBox="0 0 640.000000 640.000000"
 preserveAspectRatio="xMidYMid meet">
<metadata>
Created by potrace 1.11, written by Peter Selinger 2001-2013
</metadata>
<g transform="translate(0.000000,640.000000) scale(0.100000,-0.100000)"
fill="#ff6700" stroke="none">
<path d="M2842 6379 c-573 -72 -1044 -252 -1497 -573 -152 -107 -276 -214
-420 -360 -363 -368 -610 -774 -771 -1266 -27 -82 -88 -319 -100 -390 -4 -25
-8 -47 -9 -50 -1 -3 -5 -32 -9 -65 -5 -33 -10 -68 -12 -78 -19 -105 -26 -560
-11 -697 18 -156 39 -292 63 -395 39 -168 112 -402 163 -520 130 -299 263
-528 438 -752 94 -121 122 -152 263 -294 285 -288 599 -502 980 -671 91 -40
139 -59 280 -108 82 -29 248 -73 358 -94 171 -33 169 -33 248 -41 38 -4 78
-10 89 -12 38 -9 501 -11 580 -2 187 20 174 18 345 51 58 11 128 26 155 33
166 45 209 58 297 89 933 335 1665 1085 1970 2021 51 158 78 266 108 440 40
229 48 341 44 595 -2 135 -6 259 -8 275 -2 17 -7 49 -10 73 -3 23 -8 61 -11
85 -26 202 -122 552 -204 742 -150 345 -324 629 -543 883 -79 91 -313 315
-413 395 -445 356 -1012 604 -1532 672 -24 3 -62 8 -85 11 -24 3 -56 8 -73 10
-16 2 -142 6 -280 8 -197 2 -280 -1 -393 -15z m536 -928 c170 -58 292 -192
321 -356 39 -218 -72 -438 -267 -527 -60 -28 -80 -31 -187 -36 -140 -5 -208 6
-291 49 -164 86 -251 220 -259 400 -11 244 175 467 410 491 84 9 213 -1 273
-21z m302 -1369 c0 -15 0 -655 1 -1424 l0 -1396 177 0 c97 0 183 -1 190 -1 9
-1 12 -42 12 -169 l0 -168 -857 1 -858 0 -3 168 c-2 154 -1 167 15 168 10 0
95 1 188 2 l170 2 2 1253 2 1252 -189 0 -190 0 0 169 0 170 670 0 670 0 0 -27z"/>
</g>
</svg>
